# xmcd
#
# Track frame offsets: 
#        150
#        20304
#        36276
#        62689
#        89839
#        108486
#        130517
#        163113
#        181176
#        200796
#        226765
#        246969
#
# Disc length: 3597 seconds
#
# Revision: 0
# Processed by: cddbd v1.5.2PL0 Copyright (c) Steve Scherf et al.
# Submitted via: ExactAudioCopyFreeDBPlugin 1.0
#
DISCID=9f0e0b0c
DTITLE=The Motives - The Motives (feat Matt Taylor)
DYEAR=2012
DGENRE=Blues
TTITLE0=Never Tell A Lie
TTITLE1=Cookie Jar
TTITLE2=Leap of Faith
TTITLE3=Find Another Love
TTITLE4=The Rules Don't Apply
TTITLE5=Looking For The Way Home
TTITLE6=Gone Before
TTITLE7=Gangsters
TTITLE8=If You Were Gone
TTITLE9=After All This Borrowed Time
TTITLE10=Nature's Cruel Design
TTITLE11=Baby Don't Lose My Number
EXTD=
EXTT0=
EXTT1=
EXTT2=
EXTT3=
EXTT4=
EXTT5=
EXTT6=
EXTT7=
EXTT8=
EXTT9=
EXTT10=
EXTT11=
PLAYORDER=
